<svg width="209" height="97" viewBox="0 0 209 97" fill="none" xmlns="http://www.w3.org/2000/svg">
<path d="M1.216 78L12.736 41.968H23.424L35.264 78H28.288L25.216 67.824H11.2L8.128 78H1.216ZM18.176 44.72L12.736 62.768H23.68L18.176 44.72ZM45.978 89.712V83.568H57.498V73.328H57.37C57.3273 73.4133 57.1353 73.7333 56.794 74.288C56.4953 74.8427 56.0047 75.4613 55.322 76.144C54.6393 76.8267 53.7433 77.424 52.634 77.936C51.5673 78.4053 50.2233 78.64 48.602 78.64C44.7193 78.64 41.9247 77.4027 40.218 74.928C38.5113 72.4533 37.658 69.232 37.658 65.264C37.658 61.1253 38.5113 57.84 40.218 55.408C41.9673 52.9333 44.762 51.696 48.602 51.696C50.3087 51.696 51.7167 51.9733 52.826 52.528C53.9353 53.04 54.81 53.6587 55.45 54.384C56.09 55.1093 56.538 55.7707 56.794 56.368C57.0927 56.9653 57.2633 57.328 57.306 57.456H57.434L57.498 51.696H64.218V80.24C64.218 83.7387 63.514 86.192 62.106 87.6C60.7407 89.008 58.6073 89.712 55.706 89.712H45.978ZM50.65 73.136C53.0393 73.136 54.7673 72.4107 55.834 70.96C56.9007 69.4667 57.434 67.568 57.434 65.264C57.434 63.0453 56.922 61.2107 55.898 59.76C54.874 58.2667 53.1673 57.52 50.778 57.52C49.0287 57.52 47.6633 57.904 46.682 58.672C45.7007 59.3973 44.9967 60.3573 44.57 61.552C44.186 62.704 43.994 63.9413 43.994 65.264C43.994 66.5867 44.1647 67.8667 44.506 69.104C44.89 70.2987 45.5513 71.28 46.49 72.048C47.4713 72.7733 48.858 73.136 50.65 73.136ZM69.313 78V51.696H75.393L75.841 58.992C76.097 57.8827 76.5877 56.7733 77.313 55.664C78.081 54.512 79.1263 53.5733 80.449 52.848C81.8143 52.08 83.5637 51.696 85.697 51.696H86.657V58.992H85.697C82.0277 58.992 79.4677 59.5893 78.017 60.784C76.5663 61.936 75.841 63.8987 75.841 66.672V78H69.313ZM105.532 78V41.968H112.06V72.432H129.852V78H105.532ZM146.219 78.64C143.189 78.64 140.715 78 138.795 76.72C136.917 75.3973 135.509 73.7333 134.571 71.728C133.675 69.68 133.205 67.5253 133.163 65.264C133.12 62.6187 133.611 60.272 134.635 58.224C135.701 56.1333 137.195 54.512 139.115 53.36C141.077 52.1653 143.381 51.568 146.027 51.568C148.373 51.568 150.464 52.08 152.299 53.104C154.176 54.128 155.669 55.5787 156.779 57.456C157.888 59.2907 158.464 61.4667 158.507 63.984C158.507 64.0693 158.507 64.304 158.507 64.688C158.507 65.072 158.507 65.392 158.507 65.648H139.371C139.371 68.08 139.968 69.9573 141.163 71.28C142.357 72.56 144 73.2 146.091 73.2C147.712 73.2 149.056 72.7947 150.123 71.984C151.232 71.1733 151.893 70.1067 152.107 68.784H158.443C158.144 71.5573 156.949 73.904 154.859 75.824C152.768 77.7013 149.888 78.64 146.219 78.64ZM139.562 62.704H151.979C151.936 62.4053 151.829 61.936 151.659 61.296C151.531 60.656 151.253 59.9947 150.827 59.312C150.443 58.6293 149.845 58.0533 149.035 57.584C148.224 57.1147 147.179 56.88 145.899 56.88C144.192 56.88 142.891 57.2427 141.995 57.968C141.141 58.6507 140.523 59.4613 140.139 60.4C139.797 61.296 139.605 62.064 139.562 62.704ZM172.517 78.64C168.89 78.64 166.309 77.4027 164.773 74.928C163.237 72.4533 162.469 69.2107 162.469 65.2C162.469 61.1467 163.237 57.8827 164.773 55.408C166.352 52.8907 168.933 51.632 172.517 51.632C174.565 51.632 176.186 51.9947 177.381 52.72C178.576 53.4027 179.472 54.1707 180.069 55.024C180.666 55.8773 181.029 56.5173 181.157 56.944H181.285V51.696H188.005V78H182.373L181.285 73.712H181.157C181.029 74.096 180.645 74.6933 180.005 75.504C179.408 76.272 178.49 76.9973 177.253 77.68C176.058 78.32 174.48 78.64 172.517 78.64ZM175.205 73.136C177.594 73.136 179.194 72.3893 180.005 70.896C180.858 69.36 181.285 67.4827 181.285 65.264C181.285 62.9173 180.858 61.0187 180.005 59.568C179.152 58.1173 177.552 57.392 175.205 57.392C173.541 57.392 172.24 57.7547 171.301 58.48C170.405 59.2053 169.765 60.1653 169.381 61.36C169.04 62.512 168.869 63.8133 168.869 65.264C168.869 66.7147 169.04 68.0373 169.381 69.232C169.765 70.4267 170.405 71.3867 171.301 72.112C172.24 72.7947 173.541 73.136 175.205 73.136ZM194.797 78.064V56.304H191.213V51.696H194.797V47.408C194.797 45.104 195.309 43.44 196.333 42.416C197.4 41.392 198.978 40.88 201.069 40.88H207.981V45.936H201.325V51.696H207.789V56.304H201.325V78.064H194.797Z" fill="#D9D9D9"/>
<path d="M94.97 48.816C93.562 48.8587 92.6233 48.5387 92.154 47.856C91.7273 47.1307 91.514 46.2773 91.514 45.296C91.514 44.3573 91.7487 43.5467 92.218 42.864C92.6873 42.1813 93.6047 41.84 94.97 41.84C96.2927 41.84 97.1673 42.1813 97.594 42.864C98.0633 43.5467 98.298 44.3573 98.298 45.296C98.298 46.2773 98.0633 47.1093 97.594 47.792C97.1673 48.432 96.2927 48.7733 94.97 48.816ZM91.642 78V51.696H98.17V78H91.642Z" fill="#16D012"/>
<path d="M141.989 16.9967C138.335 12.2982 131.834 8.33488 124.598 6.39586C115.649 3.99818 107.521 5.16503 102.3 9.599C99.8484 11.6798 98.0592 14.4459 96.9833 17.8145C96.026 20.8149 95.6367 24.3136 95.8178 28.2375C102.897 17.5266 116.334 11.2572 128.982 14.646C128.982 14.646 116.314 14.5854 106.291 22.2293C104.007 23.9587 101.994 26.0193 100.319 28.3429C96.8793 32.7795 94.36 37.8577 92.909 43.2801L98.2085 44.7001C98.2085 44.7001 98.7577 39.4286 101.714 33.9907C103.705 34.8379 105.75 35.5534 107.834 36.1327C112.707 37.4384 116.453 37.3129 119.626 35.7403C122.469 34.3317 124.468 31.9481 126.583 29.4281C129.813 25.5758 133.473 21.2115 141.254 19.1686C141.474 19.1111 141.675 19.0001 141.841 18.8455C142.007 18.691 142.132 18.4977 142.205 18.2829C142.278 18.0682 142.296 17.8388 142.258 17.6152C142.22 17.3917 142.127 17.181 141.988 17.002L141.989 16.9967Z" fill="#16D012"/>
<path d="M57.7614 28.0885C60.2735 24.3982 64.9512 21.1229 70.2756 19.3279C76.8595 17.1083 82.9989 17.5957 87.1173 20.6665C89.0513 22.1075 90.5219 24.093 91.4871 26.5633C92.3461 28.7636 92.8037 31.3639 92.8545 34.3095C87.0473 26.6286 76.6916 22.5741 67.3861 25.7113C67.3861 25.7113 76.8646 25.0643 84.7297 30.3098C86.5216 31.4958 88.1261 32.9425 89.4901 34.6022C92.2757 37.7596 94.4025 41.4409 95.7461 45.4307L91.8469 46.7452C91.8469 46.7452 91.1855 42.8256 88.7142 38.8958C87.2643 39.6244 85.7681 40.2571 84.2352 40.7897C80.6498 41.9984 77.8404 42.0823 75.3905 41.056C73.1959 40.1366 71.5864 38.4474 69.8836 36.6617C67.2827 33.9316 64.3359 30.8388 58.4149 29.6792C58.2479 29.6466 58.0916 29.5731 57.9601 29.4653C57.8286 29.3575 57.7259 29.2187 57.6612 29.0615C57.5966 28.9042 57.572 28.7334 57.5897 28.5642C57.6075 28.3951 57.6669 28.233 57.7627 28.0924L57.7614 28.0885Z" fill="#16D012"/>
</svg>
